HIERARCHY
ROOT Hips
{
OFFSET -0.1795 -22.3333 2.8219000000000003
	CHANNELS 6 Xposition Yposition Zposition Zrotation Yrotation Xrotation 
	JOINT LeftUpLeg
	{
OFFSET 6.952 -9.140600000000001 -0.6815
		CHANNELS 3 Zrotation Yrotation Xrotation
		JOINT LeftLeg
		{
OFFSET 3.4277 -37.5199 -0.4496
			CHANNELS 3 Zrotation Yrotation Xrotation
			JOINT LeftFoot
			{
OFFSET -1.3596000000000001 -39.7961 -4.3693
				CHANNELS 3 Zrotation Yrotation Xrotation
				JOINT LeftToe
				{
OFFSET 2.6358 -5.5791 11.9288
					CHANNELS 3 Zrotation Yrotation Xrotation
					End Site
					{
OFFSET 0.0 0.0 0.0
					}
				}
			}
		}
	}
	JOINT RightUpLeg
	{
OFFSET -6.7669999999999995 -9.052200000000001 -0.432
		CHANNELS 3 Zrotation Yrotation Xrotation
		JOINT RightLeg
		{
OFFSET -3.8289999999999997 -38.2569 -0.885
			CHANNELS 3 Zrotation Yrotation Xrotation
			JOINT RightFoot
			{
OFFSET 1.5774 -39.8415 -4.2312
				CHANNELS 3 Zrotation Yrotation Xrotation
				JOINT RightToe
				{
OFFSET -2.5372 -4.8144 12.3348
					CHANNELS 3 Zrotation Yrotation Xrotation
					End Site
					{
OFFSET 0.0 0.0 0.0
					}
				}
			}
		}
	}
	JOINT Spine
	{
OFFSET -0.2533 10.8963 -2.6696
		CHANNELS 3 Zrotation Yrotation Xrotation
		JOINT Spine1
		{
OFFSET 0.5487 13.517999999999999 0.1092
			CHANNELS 3 Zrotation Yrotation Xrotation
			JOINT Spine2
			{
OFFSET 0.1457 5.292199999999999 2.5425
				CHANNELS 3 Zrotation Yrotation Xrotation
				JOINT Neck
				{
OFFSET -0.2778 21.387 -4.2857
					CHANNELS 3 Zrotation Yrotation Xrotation
					JOINT Head
					{
OFFSET 0.5152 6.497 5.1349
						CHANNELS 3 Zrotation Yrotation Xrotation
						End Site
						{
OFFSET 0.0 0.0 0.0
						}
					}
				}
				JOINT LeftShoulder
				{
OFFSET 7.8845 12.1749 -3.4090000000000003
					CHANNELS 3 Zrotation Yrotation Xrotation
					JOINT LeftArm
					{
OFFSET 9.0977 3.0469 -0.8867999999999999
						CHANNELS 3 Zrotation Yrotation Xrotation
						JOINT LeftForeArm
						{
OFFSET 25.9612 -1.2772000000000001 -2.7456
							CHANNELS 3 Zrotation Yrotation Xrotation
							JOINT LeftHand
							{
OFFSET 24.9234 0.8986 -0.1171
								CHANNELS 3 Zrotation Yrotation Xrotation
								End Site
								{
OFFSET 0.0 0.0 0.0
								}
							}
						}
					}
				}
				JOINT RightShoulder
				{
OFFSET -8.1759 11.8833 -3.8614999999999995
					CHANNELS 3 Zrotation Yrotation Xrotation
					JOINT RightArm
					{
OFFSET -9.6012 3.2550999999999997 -0.9143
						CHANNELS 3 Zrotation Yrotation Xrotation
						JOINT RightForeArm
						{
OFFSET -25.374200000000002 -1.3329 -2.1401
							CHANNELS 3 Zrotation Yrotation Xrotation
							JOINT RightHand
							{
OFFSET -25.5298 0.7772 -0.5559
								CHANNELS 3 Zrotation Yrotation Xrotation
								End Site
								{
OFFSET 0.0 0.0 0.0
								}
							}
						}
					}
				}
			}
		}
	}
}
MOTION
Frames: 16
Frame Time: 0.050000
-11.1817 109.08009999999999 6.296799999999999 0.107049 2.250346 0.258891 6.505363 -0.553179 -12.173448 -4.165700 0.365114 20.955102 0.231815 9.614756 28.820321 0.000000 0.000000 0.000000 -5.169232 0.903325 -15.420843 5.390183 -1.012348 26.154990 -0.971115 -9.891029 26.943479 0.000000 0.000000 0.000000 -0.798207 -0.571906 15.672594 -0.181632 0.174609 -2.662145 0.368494 -1.208954 -3.601526 -3.254495 2.840903 -10.747500 0.000000 0.000000 0.000000 -12.236888 -12.310675 4.408203 -45.550565 -25.156519 4.744674 -54.814518 -67.585952 41.060509 0.000000 0.000000 0.000000 4.728200 13.763043 4.875068 38.734163 16.453426 1.841856 58.921040 69.281085 44.502485 0.000000 0.000000 0.000000
-11.2566 102.4802 5.1541 0.133673 0.518655 0.984419 7.400565 -0.510829 -14.689711 -3.706038 0.329350 25.185365 0.152165 8.199966 24.135260 0.000000 0.000000 0.000000 -5.887435 1.109597 -20.255309 6.088540 -1.217978 32.908487 -2.379988 -11.900232 25.134855 0.000000 0.000000 0.000000 -0.657120 -0.571973 16.152050 -0.836520 0.400799 -0.053187 -0.711493 -0.174506 -3.474276 -3.430149 2.945304 -9.791269 0.000000 0.000000 0.000000 -10.858142 -14.186588 5.166003 -41.652226 -27.349058 4.991610 -58.267321 -76.315800 50.395173 0.000000 0.000000 0.000000 4.758969 14.020166 5.039156 35.024063 18.511028 2.117963 51.398200 74.072544 42.351094 0.000000 0.000000 0.000000
-11.438600000000001 93.3445 3.4937000000000005 -0.073393 1.684951 0.233092 9.237925 -0.424133 -20.209552 -7.094819 1.648122 38.595903 3.205786 8.299026 5.119774 0.000000 0.000000 0.000000 -6.665430 1.063534 -24.292313 7.296035 -2.405215 44.659550 -4.369371 -12.685532 9.573882 0.000000 0.000000 0.000000 0.084100 -1.017057 22.356962 -1.916069 0.974951 -4.623285 -0.445133 -1.657606 -0.387120 -2.419288 2.381888 -12.822891 0.000000 0.000000 0.000000 -11.408145 -16.206790 6.400330 -34.751994 -29.831849 4.313625 -45.128626 -84.088927 45.201861 0.000000 0.000000 0.000000 5.779591 15.631577 5.658229 28.735317 20.186797 1.732961 42.647984 76.415168 36.461544 0.000000 0.000000 0.000000
-11.7088 83.9379 1.2242 -0.582589 3.586598 -1.956082 11.864193 -0.149254 -30.849491 -10.153608 3.543380 59.153654 5.502033 9.853765 -6.470387 0.000000 0.000000 0.000000 -6.045216 1.217694 -30.462042 7.858735 -4.290469 59.719863 -7.873595 -19.185738 -5.115239 0.000000 0.000000 0.000000 0.663854 -1.932010 32.522984 -1.748402 0.975549 -6.978012 -1.374607 -2.185511 -0.454280 0.473497 1.011522 -18.158773 0.000000 0.000000 0.000000 -11.776329 -19.235587 7.715528 -26.902069 -30.767852 3.190761 17.714186 -83.822070 -12.256189 0.000000 0.000000 0.000000 7.170410 16.463873 6.117769 23.615463 20.986390 1.356367 28.353427 76.936462 25.175004 0.000000 0.000000 0.000000
-12.0494 76.858 -0.8786 -0.793038 3.724763 -3.002238 12.639467 -0.036272 -41.765547 -11.779546 5.985826 75.146831 7.636875 14.676958 -8.600603 0.000000 0.000000 0.000000 -5.870890 1.482256 -39.534564 7.797531 -5.523901 75.020625 -9.593898 -23.868005 -8.076063 0.000000 0.000000 0.000000 0.757367 -2.623393 40.680357 -3.941283 1.870210 -8.527256 0.256616 -3.519315 0.320780 0.900979 0.910794 -23.108829 0.000000 0.000000 0.000000 -13.569479 -22.102147 9.744451 -18.427047 -31.809834 1.704279 32.815844 -77.128426 -22.600711 0.000000 0.000000 0.000000 6.659795 19.480446 7.086809 20.511455 23.300974 1.373641 -5.316374 71.772712 -2.026816 0.000000 0.000000 0.000000
-12.3718 71.51809999999999 -2.4337 -1.180346 3.048556 -3.618238 13.825800 0.559801 -49.198757 -12.454887 8.268400 84.772405 9.304249 18.798631 -8.167789 0.000000 0.000000 0.000000 -5.707424 1.857281 -46.497191 8.300483 -6.524145 84.828618 -10.679156 -26.872174 -8.220723 0.000000 0.000000 0.000000 0.565782 -2.901414 46.389813 -4.254469 1.989532 -7.991883 0.825890 -2.749329 -1.185064 0.699583 1.202825 -25.227613 0.000000 0.000000 0.000000 -13.795101 -24.651558 10.970521 -14.533084 -31.596745 1.069306 29.970380 -72.252085 -18.753130 0.000000 0.000000 0.000000 6.976953 21.591774 7.993268 18.577351 24.704742 1.383924 -13.302358 66.387846 -6.921432 0.000000 0.000000 0.000000
-12.7076 67.2253 -3.5476 -1.124332 2.765366 -4.183719 14.292356 0.894937 -54.337639 -11.690893 8.637839 91.764013 9.433801 19.101074 -8.951646 0.000000 0.000000 0.000000 -5.573127 2.155644 -51.823251 9.207583 -8.168248 92.010146 -12.669972 -32.246155 -8.108239 0.000000 0.000000 0.000000 -0.044085 -2.922740 51.019375 -4.116929 1.900832 -10.463049 1.252263 -2.712098 0.347161 0.686439 1.129188 -24.803329 0.000000 0.000000 0.000000 -11.716308 -27.186392 11.879571 -11.333979 -30.918010 0.401740 26.725262 -68.037536 -15.129585 0.000000 0.000000 0.000000 6.522642 24.703288 9.225529 14.348818 24.924394 0.741378 -18.695459 63.428981 -9.847187 0.000000 0.000000 0.000000
-13.0216 63.9582 -4.429 -1.212874 2.995258 -5.085167 14.465580 0.932172 -57.487498 -10.782367 8.011688 96.170654 9.410648 19.029015 -10.267110 0.000000 0.000000 0.000000 -5.281964 2.295519 -53.831712 9.669509 -9.616345 97.118548 -12.835514 -34.942504 -13.639710 0.000000 0.000000 0.000000 -0.558092 -2.855319 52.684782 -3.763861 1.786698 -9.607069 1.663550 -2.451037 -0.656490 1.524361 0.820199 -25.697707 0.000000 0.000000 0.000000 -10.233913 -29.245067 12.458352 -8.912408 -31.131296 0.064516 28.165787 -64.259130 -15.080219 0.000000 0.000000 0.000000 6.151798 27.099116 10.176397 11.373808 25.122620 0.378473 -22.362017 62.397754 -11.832562 0.000000 0.000000 0.000000
-13.3156 62.0062 -5.0577 -1.109832 2.553302 -5.802447 14.604339 1.170212 -57.380725 -10.080644 7.480612 98.070414 9.350209 18.623392 -16.654968 0.000000 0.000000 0.000000 -5.074249 2.563078 -54.617577 10.103129 -10.513836 100.577499 -12.041424 -35.081401 -19.011503 0.000000 0.000000 0.000000 -1.646769 -2.288782 54.153210 -3.561918 1.705188 -9.250205 2.284992 -2.412420 -1.781447 1.623840 0.660514 -24.402059 0.000000 0.000000 0.000000 -10.842096 -30.165799 13.060787 -5.048110 -29.679173 -0.560659 29.903908 -61.986430 -15.498648 0.000000 0.000000 0.000000 6.461215 28.264531 10.643108 8.723453 25.408167 0.057135 -26.378833 63.836090 -14.786376 0.000000 0.000000 0.000000
-13.5661 62.1148 -5.3388 -1.311414 3.119661 -6.095202 14.171030 0.729888 -56.271403 -10.069337 6.926167 97.020168 9.970965 20.536690 -19.481525 0.000000 0.000000 0.000000 -4.295797 2.771344 -54.452580 10.078372 -10.941296 100.829136 -12.617380 -36.677787 -18.260473 0.000000 0.000000 0.000000 -1.544639 -2.403960 52.603743 -2.658172 1.355456 -6.642544 1.794527 -2.463281 -3.681015 2.746487 0.103235 -23.534616 0.000000 0.000000 0.000000 -11.826507 -30.942778 13.614269 -3.335857 -28.343364 -0.760123 31.889873 -62.503545 -16.910576 0.000000 0.000000 0.000000 6.081892 29.273180 11.047227 8.677960 25.314169 0.103095 -27.655064 66.171508 -16.257372 0.000000 0.000000 0.000000
-13.7594 64.6412 -5.2186 -1.093396 2.726346 -6.336235 13.583606 0.572004 -52.545765 -10.086554 6.475742 92.359102 10.318356 21.512493 -18.649367 0.000000 0.000000 0.000000 -4.397506 2.708400 -51.570053 10.378947 -10.420682 96.692493 -12.308981 -35.068025 -17.365568 0.000000 0.000000 0.000000 -2.150590 -1.899770 50.753636 -2.188387 1.148301 -6.097689 1.836586 -2.322587 -3.951835 2.121693 0.250783 -21.449463 0.000000 0.000000 0.000000 -12.809998 -29.084363 12.871117 -5.656918 -27.472384 -0.404297 35.258426 -70.067910 -21.975472 0.000000 0.000000 0.000000 6.720582 28.367962 10.759163 11.299162 25.485896 0.529386 -25.461489 72.393228 -16.793888 0.000000 0.000000 0.000000
-13.897100000000002 69.0967 -4.6945 -0.594791 1.899022 -6.317134 14.178426 1.045833 -47.564773 -11.250912 7.378144 84.973508 9.767521 19.720078 -13.645296 0.000000 0.000000 0.000000 -3.556197 3.032833 -46.774320 10.232918 -8.664009 89.740264 -12.355674 -33.827689 -14.460269 0.000000 0.000000 0.000000 -2.298352 -1.396947 45.692522 -1.530126 0.837160 -4.807877 0.732880 -1.860723 -4.206816 2.591127 -0.143333 -19.023952 0.000000 0.000000 0.000000 -14.541323 -25.520580 11.244015 -11.040421 -25.668571 0.292424 28.941688 -81.529717 -21.525040 0.000000 0.000000 0.000000 9.125913 26.023978 10.181900 16.993812 25.459210 1.419938 2.712670 79.126043 4.206418 0.000000 0.000000 0.000000
-13.9878 74.7875 -3.9101 -0.039307 3.082852 -6.139850 12.858079 0.229165 -41.933605 -11.489726 5.948801 75.374979 8.812782 17.575219 -7.215934 0.000000 0.000000 0.000000 -4.022076 2.246252 -39.839679 9.357610 -7.049665 78.975246 -11.130947 -29.227931 -12.597111 0.000000 0.000000 0.000000 -1.183307 -1.715907 39.704334 -1.640250 0.893481 -3.889431 -0.225235 -2.265193 -3.987004 2.297749 -0.152442 -16.811931 0.000000 0.000000 0.000000 -16.321532 -22.397064 9.820916 -18.874804 -24.216246 1.113873 -81.610186 -84.299129 79.817432 0.000000 0.000000 0.000000 11.060660 22.524457 8.886115 24.368713 22.347165 1.986563 60.113163 76.907271 51.055934 0.000000 0.000000 0.000000
-14.0082 80.5441 -3.0256000000000003 0.171510 3.517065 -5.989898 12.537103 0.086894 -35.673055 -11.862811 5.145443 64.999085 7.331313 14.941027 -1.294155 0.000000 0.000000 0.000000 -4.318664 1.753912 -32.574417 8.547896 -5.332426 66.967592 -9.100435 -22.689338 -10.135465 0.000000 0.000000 0.000000 -1.117411 -1.426726 33.295157 -0.684719 0.403865 -1.699616 -1.383546 -1.447095 -4.379141 3.003030 -0.564046 -15.410698 0.000000 0.000000 0.000000 -15.698248 -17.774114 6.980499 -27.726040 -20.759394 1.552924 -103.810783 -72.916087 89.903198 0.000000 0.000000 0.000000 13.456251 17.694952 7.080342 29.787359 19.856191 2.051239 82.587565 68.927364 64.007225 0.000000 0.000000 0.000000
-13.936599999999999 85.465 -2.2297000000000002 0.252860 4.072703 -5.193941 11.309755 -0.264983 -30.076348 -10.949988 3.717867 56.223735 6.070648 12.764680 0.880688 0.000000 0.000000 0.000000 -4.008867 1.470191 -25.653129 7.762260 -3.919398 54.192282 -7.555134 -18.332264 -6.021334 0.000000 0.000000 0.000000 -0.654286 -1.262918 27.473803 -0.184893 0.174873 -1.851101 -1.892972 -1.394697 -3.251743 3.357264 -0.897425 -14.037032 0.000000 0.000000 0.000000 -16.897037 -14.538879 5.304348 -34.050043 -16.242672 0.845381 -103.537678 -65.009104 80.900008 0.000000 0.000000 0.000000 15.085780 13.979448 5.505274 34.661026 15.871109 1.335859 88.945727 62.170446 63.103982 0.000000 0.000000 0.000000
-13.7846 88.8844 -1.6638 0.522918 4.822482 -4.274841 9.986822 -0.535386 -25.320988 -9.526612 2.366807 49.297008 5.218467 11.412015 2.263858 0.000000 0.000000 0.000000 -3.407986 1.225081 -19.181376 6.173077 -2.370292 42.056015 -5.967082 -14.478268 -3.071788 0.000000 0.000000 0.000000 -0.730900 -0.997147 22.450180 0.222726 -0.042210 -1.202961 -1.784832 -1.244825 -3.245921 3.075309 -0.872998 -12.351976 0.000000 0.000000 0.000000 -17.945304 -10.610465 3.146668 -37.459286 -12.487450 -0.073991 -103.390970 -58.016217 72.632835 0.000000 0.000000 0.000000 15.575533 10.151279 3.716672 38.265208 11.832491 0.310312 91.324490 57.234429 60.269317 0.000000 0.000000 0.000000
